<svg width="30" height="30" viewBox="0 0 30 30" fill="none" xmlns="http://www.w3.org/2000/svg">
<path d="M10.2067 27C9.54605 27 8.98053 26.765 8.51009 26.295C8.03966 25.825 7.80444 25.26 7.80444 24.6C7.80444 23.94 8.03966 23.375 8.51009 22.905C8.98053 22.435 9.54605 22.2 10.2067 22.2C10.8673 22.2 11.4328 22.435 11.9032 22.905C12.3737 23.375 12.6089 23.94 12.6089 24.6C12.6089 25.26 12.3737 25.825 11.9032 26.295C11.4328 26.765 10.8673 27 10.2067 27ZM22.2178 27C21.5571 27 20.9916 26.765 20.5212 26.295C20.0508 25.825 19.8155 25.26 19.8155 24.6C19.8155 23.94 20.0508 23.375 20.5212 22.905C20.9916 22.435 21.5571 22.2 22.2178 22.2C22.8784 22.2 23.4439 22.435 23.9143 22.905C24.3848 23.375 24.62 23.94 24.62 24.6C24.62 25.26 24.3848 25.825 23.9143 26.295C23.4439 26.765 22.8784 27 22.2178 27ZM9.18572 7.8L12.0684 13.8H20.4761L23.7792 7.8H9.18572ZM8.04466 5.4H25.761C26.2215 5.4 26.5718 5.605 26.812 6.015C27.0522 6.425 27.0622 6.84 26.842 7.26L22.5781 14.94C22.3579 15.34 22.0626 15.65 21.6923 15.87C21.3219 16.09 20.9166 16.2 20.4761 16.2H11.5279L10.2067 18.6H23.4189C23.7592 18.6 24.0444 18.715 24.2747 18.945C24.5049 19.175 24.62 19.46 24.62 19.8C24.62 20.14 24.5049 20.425 24.2747 20.655C24.0444 20.885 23.7592 21 23.4189 21H10.2067C9.30583 21 8.6252 20.605 8.16477 19.815C7.70435 19.025 7.68433 18.24 8.10472 17.46L9.72621 14.52L5.40222 5.4H4.20111C3.8608 5.4 3.57553 5.285 3.34532 5.055C3.11511 4.825 3 4.54 3 4.2C3 3.86 3.11511 3.575 3.34532 3.345C3.57553 3.115 3.8608 3 4.20111 3H6.15291C6.37312 3 6.58331 3.06 6.7835 3.18C6.98368 3.3 7.13382 3.47 7.23391 3.69L8.04466 5.4Z" fill="white"/>
</svg>
