<svg width="34" height="38" viewBox="0 0 34 38" fill="none" xmlns="http://www.w3.org/2000/svg">
<path d="M2.41478 38C1.78347 38 1.27841 37.7546 0.899625 37.2638C0.520836 36.7729 0.410355 36.2267 0.568184 35.625L7.67049 7.125L7.57579 5.795C7.54422 5.25667 7.35483 4.78958 7.00761 4.39375C6.66038 3.99792 6.21846 3.8 5.68184 3.8C5.14522 3.8 4.69541 3.98208 4.33241 4.34625C3.9694 4.71042 3.78789 5.16167 3.78789 5.7V7.6C3.78789 8.13833 3.60639 8.58958 3.24339 8.95375C2.88038 9.31792 2.43057 9.5 1.89395 9.5C1.35733 9.5 0.907516 9.31792 0.54451 8.95375C0.181503 8.58958 0 8.13833 0 7.6V5.7C0 4.11667 0.552401 2.77083 1.6572 1.6625C2.76201 0.554167 4.10355 0 5.68184 0H26.61C28.1251 0 29.4272 0.514583 30.5162 1.54375C31.6053 2.57292 32.1971 3.8475 32.2918 5.3675L33.9964 36.005C34.0279 36.5433 33.8543 37.0104 33.4755 37.4062C33.0967 37.8021 32.639 38 32.1024 38H2.41478ZM4.92426 34.2H9.32769L8.42807 19.76L4.92426 34.2ZM13.1629 34.2H30.1138L28.5039 5.605C28.4723 5.09833 28.2751 4.67083 27.9121 4.3225C27.549 3.97417 27.115 3.8 26.61 3.8H11.0322C11.1585 4.11667 11.2374 4.42542 11.269 4.72625C11.3006 5.02708 11.3321 5.35167 11.3637 5.7L13.1629 34.2ZM20.3599 30.4C20.7703 30.4 21.1096 30.2654 21.3779 29.9963C21.6462 29.7271 21.7804 29.3867 21.7804 28.975V22.8C22.6011 22.61 23.2798 22.1746 23.8164 21.4937C24.353 20.8129 24.6213 20.0292 24.6213 19.1425V12.35C24.6213 12.0967 24.5266 11.875 24.3372 11.685C24.1478 11.495 23.9269 11.4 23.6743 11.4C23.4218 11.4 23.2009 11.495 23.0115 11.685C22.8221 11.875 22.7274 12.0967 22.7274 12.35V18.5725H21.3069V12.35C21.3069 12.0967 21.2122 11.875 21.0228 11.685C20.8334 11.495 20.6125 11.4 20.3599 11.4C20.1074 11.4 19.8865 11.495 19.6971 11.685C19.5077 11.875 19.413 12.0967 19.413 12.35V18.5725H17.9925V12.35C17.9925 12.0967 17.8978 11.875 17.7084 11.685C17.519 11.495 17.2981 11.4 17.0455 11.4C16.793 11.4 16.572 11.495 16.3826 11.685C16.1933 11.875 16.0986 12.0967 16.0986 12.35V19.1425C16.0986 20.0292 16.3669 20.8129 16.9035 21.4937C17.4401 22.1746 18.1188 22.61 18.9395 22.8V28.975C18.9395 29.3867 19.0736 29.7271 19.3419 29.9963C19.6102 30.2654 19.9496 30.4 20.3599 30.4Z" fill="#E76C1F"/>
</svg>
