<svg width="128" height="128" viewBox="0 0 128 128" fill="none" xmlns="http://www.w3.org/2000/svg">
<path fill-rule="evenodd" clip-rule="evenodd" d="M32.0013 59.5771V21.3333C32.0013 18.3878 29.6135 16 26.668 16C23.7224 16 21.3346 18.3878 21.3346 21.3333V59.5771C15.1203 61.7733 10.668 67.7003 10.668 74.6667C10.668 81.6331 15.1203 87.56 21.3346 89.7563V106.667C21.3346 109.612 23.7225 112 26.668 112C29.6135 112 32.0013 109.612 32.0013 106.667V89.7563C38.2156 87.56 42.668 81.6331 42.668 74.6667C42.668 67.7003 38.2156 61.7733 32.0013 59.5771ZM26.668 69.3333C23.7225 69.3333 21.3346 71.7211 21.3346 74.6667C21.3346 77.6123 23.7225 80 26.668 80C29.6135 80 32.0013 77.6123 32.0013 74.6667C32.0013 71.7211 29.6135 69.3333 26.668 69.3333Z" fill="#E76C1F"/>
<path fill-rule="evenodd" clip-rule="evenodd" d="M101.332 112C98.3864 112 95.9987 109.612 95.9987 106.667V96C95.9987 95.6987 96.0238 95.4032 96.0718 95.1152C89.8195 92.9397 85.332 86.9936 85.332 80C85.332 73.0064 89.8195 67.0603 96.0718 64.8848C96.0238 64.5968 95.9987 64.3013 95.9987 64V21.3333C95.9987 18.3878 98.3864 16 101.332 16C104.278 16 106.665 18.3878 106.665 21.3333V64C106.665 64.3013 106.64 64.5968 106.592 64.8848C112.845 67.0603 117.332 73.0064 117.332 80C117.332 86.9936 112.845 92.9397 106.592 95.1152C106.64 95.4032 106.665 95.6987 106.665 96V106.667C106.665 109.612 104.278 112 101.332 112ZM95.9987 80C95.9987 77.0544 98.3864 74.6667 101.332 74.6667C104.278 74.6667 106.665 77.0544 106.665 80C106.665 82.9456 104.278 85.3333 101.332 85.3333C98.3864 85.3333 95.9987 82.9456 95.9987 80Z" fill="#E76C1F"/>
<path fill-rule="evenodd" clip-rule="evenodd" d="M48 48C48 41.0335 52.4523 35.1069 58.6667 32.9105V21.3333C58.6667 18.3878 61.0544 16 64 16C66.9456 16 69.3333 18.3878 69.3333 21.3333V32.9105C75.5477 35.1069 80 41.0335 80 48C80 54.9936 75.5125 60.9397 69.2603 63.1152C69.3083 63.4032 69.3333 63.6987 69.3333 64V106.667C69.3333 109.612 66.9456 112 64 112C61.0544 112 58.6667 109.612 58.6667 106.667V64C58.6667 63.6987 58.6917 63.4032 58.7397 63.1152C52.4872 60.9397 48 54.9936 48 48ZM58.6667 48C58.6667 45.0545 61.0544 42.6667 64 42.6667C66.9456 42.6667 69.3333 45.0545 69.3333 48C69.3333 50.9455 66.9456 53.3333 64 53.3333C61.0544 53.3333 58.6667 50.9455 58.6667 48Z" fill="#E76C1F"/>
</svg>
