<svg width="113" height="38" viewBox="0 0 113 38" fill="none" xmlns="http://www.w3.org/2000/svg">
<path d="M1.368 17.912C1.368 15.4 2.024 13.352 3.336 11.768C4.648 10.168 6.496 9.344 8.88 9.296C11.44 9.296 13.336 10.12 14.568 11.768C15.8 13.416 16.416 15.408 16.416 17.744C16.416 20.272 15.752 22.328 14.424 23.912C13.112 25.48 11.264 26.288 8.88 26.336C6.336 26.336 4.448 25.52 3.216 23.888C1.984 22.24 1.368 20.248 1.368 17.912ZM4.608 17.888C4.608 19.6 4.952 21 5.64 22.088C6.328 23.176 7.4 23.72 8.856 23.72C10.168 23.72 11.216 23.232 12 22.256C12.784 21.28 13.176 19.776 13.176 17.744C13.176 16.048 12.832 14.656 12.144 13.568C11.456 12.48 10.384 11.936 8.928 11.936C7.648 11.936 6.608 12.472 5.808 13.544C5.008 14.616 4.608 16.064 4.608 17.888ZM25.6611 14.36L26.2851 16.856C25.7571 16.856 25.1411 17.008 24.4371 17.312C23.7491 17.616 23.0691 18.064 22.3971 18.656V26H19.2771V14.36H20.9091L21.9411 16.064C22.4211 15.648 23.0051 15.264 23.6931 14.912C24.3811 14.544 25.0371 14.36 25.6611 14.36ZM33.5186 16.568C32.4306 16.568 31.6706 16.952 31.2386 17.72C30.8226 18.488 30.6146 19.28 30.6146 20.096C30.6146 21.008 30.8066 21.824 31.1906 22.544C31.5746 23.264 32.3506 23.624 33.5186 23.624C33.8866 23.624 34.2706 23.544 34.6706 23.384C35.0866 23.208 35.4706 23.008 35.8226 22.784V17.408C35.4706 17.168 35.0866 16.968 34.6706 16.808C34.2706 16.648 33.8866 16.568 33.5186 16.568ZM38.9666 9.056V26H37.3346L36.4706 24.872C35.9426 25.32 35.3186 25.672 34.5986 25.928C33.8946 26.168 33.2546 26.288 32.6786 26.288C30.9826 26.288 29.6786 25.696 28.7666 24.512C27.8546 23.328 27.3986 21.856 27.3986 20.096C27.3986 18.336 27.8786 16.864 28.8386 15.68C29.8146 14.496 31.1426 13.904 32.8226 13.904C33.2546 13.904 33.7426 13.984 34.2866 14.144C34.8306 14.288 35.3426 14.496 35.8226 14.768V9.32L38.9666 9.056ZM48.1058 26.288C46.0898 26.288 44.4978 25.736 43.3298 24.632C42.1778 23.528 41.6018 22.048 41.6018 20.192C41.6018 18.336 42.1218 16.848 43.1618 15.728C44.2178 14.608 45.6498 14.048 47.4578 14.048C49.2818 14.048 50.6178 14.656 51.4658 15.872C52.3298 17.072 52.7618 18.496 52.7618 20.144V21.104H44.9138C45.0578 21.872 45.4098 22.488 45.9698 22.952C46.5298 23.4 47.2658 23.624 48.1778 23.624C48.7058 23.624 49.1778 23.56 49.5938 23.432C50.0258 23.288 50.5218 23.088 51.0818 22.832L51.9938 25.088C51.4498 25.504 50.7858 25.808 50.0018 26C49.2338 26.192 48.6018 26.288 48.1058 26.288ZM49.8098 19.016C49.6498 18.232 49.3618 17.656 48.9458 17.288C48.5298 16.904 48.0098 16.712 47.3858 16.712C46.7458 16.712 46.2098 16.912 45.7778 17.312C45.3458 17.696 45.0658 18.264 44.9378 19.016H49.8098ZM61.5439 14.36L62.1679 16.856C61.6399 16.856 61.0239 17.008 60.3199 17.312C59.6319 17.616 58.9519 18.064 58.2799 18.656V26H55.1599V14.36H56.7919L57.8239 16.064C58.3039 15.648 58.8879 15.264 59.5759 14.912C60.2639 14.544 60.9199 14.36 61.5439 14.36Z" fill="white"/>
<path d="M74.8225 9L68 26.1188H71.9717L73.1159 23.0151H79.8585L80.9869 26.1188H85.0319L78.2824 9H74.8225ZM74.2601 19.9116L76.5111 13.8065L78.7305 19.9116H74.2601Z" fill="white"/>
<path d="M96.1079 14.8921C95.2386 14.3585 94.2441 14.0921 93.1232 14.0921C92.3269 14.0921 91.596 14.2537 90.9301 14.577C90.5997 14.7376 90.2993 14.9277 90.0288 15.1479V14.3346H86.3008V31.0897H89.9799V25.3188C90.2628 25.5452 90.5794 25.7394 90.9301 25.9007C91.596 26.2075 92.3269 26.3613 93.1232 26.3613C94.2441 26.3613 95.2386 26.0948 96.1079 25.5613C96.9769 25.0277 97.6589 24.3003 98.1548 23.3791C98.65 22.4575 98.8978 21.4068 98.8978 20.2267C98.8978 19.0466 98.65 17.9959 98.1548 17.0743C97.6589 16.1531 96.9769 15.4257 96.1079 14.8921ZM94.7799 21.6572C94.5524 22.0777 94.24 22.4089 93.8418 22.6513C93.4436 22.8938 92.977 23.015 92.4408 23.015C91.9374 23.015 91.4824 22.8938 91.0763 22.6513C90.6703 22.4089 90.3574 22.0777 90.1382 21.6572C89.919 21.2373 89.8092 20.7603 89.8092 20.2267C89.8092 19.6931 89.9228 19.1924 90.1506 18.7719C90.3777 18.3517 90.6902 18.0243 91.0887 17.7897C91.4865 17.5558 91.9453 17.4383 92.4653 17.4383C92.9853 17.4383 93.4436 17.5558 93.8418 17.7897C94.24 18.0243 94.5524 18.3517 94.7799 18.7719C95.0074 19.1924 95.1213 19.6774 95.1213 20.2267C95.1213 20.776 95.0074 21.2373 94.7799 21.6572Z" fill="white"/>
<path d="M112.237 17.0743C111.741 16.1531 111.059 15.4257 110.19 14.8921C109.321 14.3585 108.326 14.0921 107.205 14.0921C106.409 14.0921 105.678 14.2537 105.012 14.577C104.682 14.7376 104.381 14.9277 104.111 15.1479V14.3346H100.383V31.0897H104.062V25.3188C104.345 25.5452 104.661 25.7394 105.012 25.9007C105.678 26.2075 106.409 26.3613 107.205 26.3613C108.326 26.3613 109.321 26.0948 110.19 25.5613C111.059 25.0277 111.741 24.3003 112.237 23.3791C112.732 22.4575 112.98 21.4068 112.98 20.2267C112.98 19.0466 112.732 17.9959 112.237 17.0743ZM108.862 21.6572C108.634 22.0777 108.322 22.4089 107.924 22.6513C107.526 22.8938 107.059 23.015 106.523 23.015C106.019 23.015 105.564 22.8938 105.158 22.6513C104.752 22.4089 104.439 22.0777 104.22 21.6572C104.001 21.2373 103.891 20.7603 103.891 20.2267C103.891 19.6931 104.005 19.1924 104.233 18.7719C104.46 18.3517 104.772 18.0243 105.171 17.7897C105.569 17.5558 106.027 17.4383 106.547 17.4383C107.067 17.4383 107.526 17.5558 107.924 17.7897C108.322 18.0243 108.634 18.3517 108.862 18.7719C109.089 19.1924 109.203 19.6774 109.203 20.2267C109.203 20.776 109.089 21.2373 108.862 21.6572Z" fill="white"/>
<path d="M38.9118 0V6.2098C38.9118 6.36188 38.7762 6.48472 38.6104 6.48177C38.4479 6.47883 38.3205 6.35033 38.3205 6.20046V0L37.8007 0V6.2098C37.8007 6.36188 37.6657 6.48448 37.4999 6.48177C37.337 6.47907 37.2094 6.35058 37.2094 6.20071V0L36.6896 0V6.20046C36.6896 6.35008 36.5626 6.47883 36.3997 6.48177C36.2339 6.48472 36.0983 6.36212 36.0983 6.2098V0L35.5556 0L35 6.15034C35 7.35102 35.1041 8.26548 35.4066 8.91852C35.8001 9.76738 36.019 10.6762 36.019 11.599V22H38.981V11.5987C38.981 10.6757 39.2002 9.76713 39.5934 8.91803C39.8959 8.26523 40 7.35102 40 6.15058L39.4546 0L38.9118 0Z" fill="white"/>
<path d="M22.8776 26.4491H22.8804V14H18.9999V20.3446V25.8589C18.9719 25.9436 18.9401 26.0061 18.9034 26.0432C18.4162 26.5367 17.2125 26.5825 16.468 26.7799C15.7559 26.9688 15.2562 27.3756 15.088 27.8905C14.8226 28.7045 15.21 29.5681 15.5556 30.3414C16.1424 31.6555 16.6547 32.9894 17.4073 34.2645C17.9382 35.1642 18.6114 36.0145 19.5714 36.7415C20.1309 37.1656 21.8431 38.4452 22.7817 37.8405C23.0028 37.6979 23.0077 37.4608 22.9968 37.2515C22.8059 33.621 22.8636 30.0602 22.8776 26.4491Z" fill="white"/>
</svg>
