<svg width="102" height="41" viewBox="0 0 102 41" fill="none" xmlns="http://www.w3.org/2000/svg">
<path d="M2.41478 41C1.78347 41 1.27841 40.7546 0.899625 40.2638C0.520836 39.7729 0.410355 39.2267 0.568184 38.625L7.67049 10.125L7.57579 8.795C7.54422 8.25667 7.35483 7.78958 7.00761 7.39375C6.66038 6.99792 6.21846 6.8 5.68184 6.8C5.14522 6.8 4.69541 6.98208 4.33241 7.34625C3.9694 7.71042 3.78789 8.16167 3.78789 8.7V10.6C3.78789 11.1383 3.60639 11.5896 3.24339 11.9537C2.88038 12.3179 2.43057 12.5 1.89395 12.5C1.35733 12.5 0.907516 12.3179 0.54451 11.9537C0.181503 11.5896 0 11.1383 0 10.6V8.7C0 7.11667 0.552401 5.77083 1.6572 4.6625C2.76201 3.55417 4.10355 3 5.68184 3H26.61C28.1251 3 29.4272 3.51458 30.5162 4.54375C31.6053 5.57292 32.1971 6.8475 32.2918 8.3675L33.9964 39.005C34.0279 39.5433 33.8543 40.0104 33.4755 40.4062C33.0967 40.8021 32.639 41 32.1024 41H2.41478ZM4.92426 37.2H9.32769L8.42807 22.76L4.92426 37.2ZM13.1629 37.2H30.1138L28.5039 8.605C28.4723 8.09833 28.2751 7.67083 27.9121 7.3225C27.549 6.97417 27.115 6.8 26.61 6.8H11.0322C11.1585 7.11667 11.2374 7.42542 11.269 7.72625C11.3006 8.02708 11.3321 8.35167 11.3637 8.7L13.1629 37.2ZM20.3599 33.4C20.7703 33.4 21.1096 33.2654 21.3779 32.9963C21.6462 32.7271 21.7804 32.3867 21.7804 31.975V25.8C22.6011 25.61 23.2798 25.1746 23.8164 24.4937C24.353 23.8129 24.6213 23.0292 24.6213 22.1425V15.35C24.6213 15.0967 24.5266 14.875 24.3372 14.685C24.1478 14.495 23.9269 14.4 23.6743 14.4C23.4218 14.4 23.2009 14.495 23.0115 14.685C22.8221 14.875 22.7274 15.0967 22.7274 15.35V21.5725H21.3069V15.35C21.3069 15.0967 21.2122 14.875 21.0228 14.685C20.8334 14.495 20.6125 14.4 20.3599 14.4C20.1074 14.4 19.8865 14.495 19.6971 14.685C19.5077 14.875 19.413 15.0967 19.413 15.35V21.5725H17.9925V15.35C17.9925 15.0967 17.8978 14.875 17.7084 14.685C17.519 14.495 17.2981 14.4 17.0455 14.4C16.793 14.4 16.572 14.495 16.3826 14.685C16.1933 14.875 16.0986 15.0967 16.0986 15.35V22.1425C16.0986 23.0292 16.3669 23.8129 16.9035 24.4937C17.4401 25.1746 18.1188 25.61 18.9395 25.8V31.975C18.9395 32.3867 19.0736 32.7271 19.3419 32.9963C19.6102 33.2654 19.9496 33.4 20.3599 33.4Z" fill="white"/>
<path d="M78.1016 40.354V19.954H84.4916C86.7116 19.954 88.6116 20.464 90.1916 21.484C91.7716 22.484 92.5616 24.154 92.5616 26.494C92.5416 28.814 91.6816 30.524 89.9816 31.624C88.3016 32.704 86.3816 33.244 84.2216 33.244H81.9716V40.354H78.1016ZM84.3716 23.194H81.9716V30.034H84.4316C85.5916 30.034 86.5316 29.774 87.2516 29.254C87.9716 28.714 88.3716 27.874 88.4516 26.734C88.4516 25.414 88.0916 24.494 87.3716 23.974C86.6516 23.454 85.6516 23.194 84.3716 23.194Z" fill="white"/>
<path d="M59.8789 40.354V19.954H66.2689C68.4889 19.954 70.3889 20.464 71.9689 21.484C73.5489 22.484 74.3389 24.154 74.3389 26.494C74.3189 28.814 73.4589 30.524 71.7589 31.624C70.0789 32.704 68.1589 33.244 65.9989 33.244H63.7489V40.354H59.8789ZM66.1489 23.194H63.7489V30.034H66.2089C67.3689 30.034 68.3089 29.774 69.0289 29.254C69.7489 28.714 70.1489 27.874 70.2289 26.734C70.2289 25.414 69.8689 24.494 69.1489 23.974C68.4289 23.454 67.4289 23.194 66.1489 23.194Z" fill="white"/>
<path d="M47.51 25.294L44.84 32.404H50.24L47.51 25.294ZM49.25 19.954L57.17 39.814L53.27 40.354L51.44 35.554H43.7L41.9 40.354H38L45.95 19.954H49.25Z" fill="white"/>
<path d="M42.083 10.597C42.083 8.60833 42.6023 6.987 43.641 5.733C44.6797 4.46633 46.1427 3.814 48.03 3.776C50.0567 3.776 51.5577 4.42833 52.533 5.733C53.5083 7.03767 53.996 8.61467 53.996 10.464C53.996 12.4653 53.4703 14.093 52.419 15.347C51.3803 16.5883 49.9173 17.228 48.03 17.266C46.016 17.266 44.5213 16.62 43.546 15.328C42.5707 14.0233 42.083 12.4463 42.083 10.597ZM44.648 10.578C44.648 11.9333 44.9203 13.0417 45.465 13.903C46.0097 14.7643 46.8583 15.195 48.011 15.195C49.0497 15.195 49.8793 14.8087 50.5 14.036C51.1207 13.2633 51.431 12.0727 51.431 10.464C51.431 9.12133 51.1587 8.01933 50.614 7.158C50.0693 6.29667 49.2207 5.866 48.068 5.866C47.0547 5.866 46.2313 6.29033 45.598 7.139C44.9647 7.98767 44.648 9.134 44.648 10.578ZM61.315 7.785L61.809 9.761C61.391 9.761 60.9033 9.88133 60.346 10.122C59.8013 10.3627 59.263 10.7173 58.731 11.186V17H56.261V7.785H57.553L58.37 9.134C58.75 8.80467 59.2123 8.50067 59.757 8.222C60.3017 7.93067 60.821 7.785 61.315 7.785ZM67.5356 9.533C66.6742 9.533 66.0726 9.837 65.7306 10.445C65.4012 11.053 65.2366 11.68 65.2366 12.326C65.2366 13.048 65.3886 13.694 65.6926 14.264C65.9966 14.834 66.6109 15.119 67.5356 15.119C67.8269 15.119 68.1309 15.0557 68.4476 14.929C68.7769 14.7897 69.0809 14.6313 69.3596 14.454V10.198C69.0809 10.008 68.7769 9.84967 68.4476 9.723C68.1309 9.59633 67.8269 9.533 67.5356 9.533ZM71.8486 3.586V17H70.5566L69.8726 16.107C69.4546 16.4617 68.9606 16.7403 68.3906 16.943C67.8332 17.133 67.3266 17.228 66.8706 17.228C65.5279 17.228 64.4956 16.7593 63.7736 15.822C63.0516 14.8847 62.6906 13.7193 62.6906 12.326C62.6906 10.9327 63.0706 9.76733 63.8306 8.83C64.6032 7.89267 65.6546 7.424 66.9846 7.424C67.3266 7.424 67.7129 7.48733 68.1436 7.614C68.5742 7.728 68.9796 7.89267 69.3596 8.108V3.795L71.8486 3.586ZM79.0837 17.228C77.4877 17.228 76.2274 16.791 75.3027 15.917C74.3907 15.043 73.9347 13.8713 73.9347 12.402C73.9347 10.9327 74.3464 9.75467 75.1697 8.868C76.0057 7.98133 77.1394 7.538 78.5707 7.538C80.0147 7.538 81.0724 8.01933 81.7437 8.982C82.4277 9.932 82.7697 11.0593 82.7697 12.364V13.124H76.5567C76.6707 13.732 76.9494 14.2197 77.3927 14.587C77.8361 14.9417 78.4187 15.119 79.1407 15.119C79.5587 15.119 79.9324 15.0683 80.2617 14.967C80.6037 14.853 80.9964 14.6947 81.4397 14.492L82.1617 16.278C81.7311 16.6073 81.2054 16.848 80.5847 17C79.9767 17.152 79.4764 17.228 79.0837 17.228ZM80.4327 11.471C80.3061 10.8503 80.0781 10.3943 79.7487 10.103C79.4194 9.799 79.0077 9.647 78.5137 9.647C78.0071 9.647 77.5827 9.80533 77.2407 10.122C76.8987 10.426 76.6771 10.8757 76.5757 11.471H80.4327ZM89.7222 7.785L90.2162 9.761C89.7982 9.761 89.3106 9.88133 88.7532 10.122C88.2086 10.3627 87.6702 10.7173 87.1382 11.186V17H84.6682V7.785H85.9602L86.7772 9.134C87.1572 8.80467 87.6196 8.50067 88.1642 8.222C88.7089 7.93067 89.2282 7.785 89.7222 7.785Z" fill="white"/>
</svg>
