<svg width="30" height="30" viewBox="0 0 30 30" fill="none" xmlns="http://www.w3.org/2000/svg">
<path d="M5.49148 27C5.10155 27 4.78961 26.845 4.55565 26.535C4.32169 26.225 4.25345 25.88 4.35094 25.5L8.73765 7.5L8.67916 6.66C8.65967 6.32 8.54269 6.025 8.32823 5.775C8.11377 5.525 7.84081 5.4 7.50937 5.4C7.17793 5.4 6.90011 5.515 6.6759 5.745C6.45169 5.975 6.33958 6.26 6.33958 6.6V7.8C6.33958 8.14 6.22748 8.425 6.00327 8.655C5.77906 8.885 5.50123 9 5.16979 9C4.83835 9 4.56052 8.885 4.33631 8.655C4.1121 8.425 4 8.14 4 7.8V6.6C4 5.6 4.34119 4.75 5.02357 4.05C5.70595 3.35 6.53455 3 7.50937 3H20.4356C21.3714 3 22.1756 3.325 22.8483 3.975C23.5209 4.625 23.8864 5.43 23.9449 6.39L24.9978 25.74C25.0172 26.08 24.91 26.375 24.6761 26.625C24.4421 26.875 24.1594 27 23.828 27H5.49148ZM7.04146 24.6H9.76122L9.20557 15.48L7.04146 24.6ZM12.13 24.6H22.5997L21.6054 6.54C21.5859 6.22 21.464 5.95 21.2398 5.73C21.0156 5.51 20.7475 5.4 20.4356 5.4H10.814C10.892 5.6 10.9408 5.795 10.9603 5.985C10.9798 6.175 10.9992 6.38 11.0187 6.6L12.13 24.6ZM16.5753 22.2C16.8287 22.2 17.0383 22.115 17.204 21.945C17.3697 21.775 17.4526 21.56 17.4526 21.3V17.4C17.9595 17.28 18.3787 17.005 18.7101 16.575C19.0416 16.145 19.2073 15.65 19.2073 15.09V10.8C19.2073 10.64 19.1488 10.5 19.0318 10.38C18.9148 10.26 18.7784 10.2 18.6224 10.2C18.4664 10.2 18.3299 10.26 18.213 10.38C18.096 10.5 18.0375 10.64 18.0375 10.8V14.73H17.1601V10.8C17.1601 10.64 17.1017 10.5 16.9847 10.38C16.8677 10.26 16.7312 10.2 16.5753 10.2C16.4193 10.2 16.2828 10.26 16.1658 10.38C16.0488 10.5 15.9904 10.64 15.9904 10.8V14.73H15.113V10.8C15.113 10.64 15.0545 10.5 14.9375 10.38C14.8206 10.26 14.6841 10.2 14.5281 10.2C14.3721 10.2 14.2357 10.26 14.1187 10.38C14.0017 10.5 13.9432 10.64 13.9432 10.8V15.09C13.9432 15.65 14.1089 16.145 14.4404 16.575C14.7718 17.005 15.191 17.28 15.6979 17.4V21.3C15.6979 21.56 15.7808 21.775 15.9465 21.945C16.1122 22.115 16.3218 22.2 16.5753 22.2Z" fill="white"/>
</svg>
