<svg width="30" height="30" viewBox="0 0 30 30" fill="none" xmlns="http://www.w3.org/2000/svg">
<path d="M15 15C13.35 15 11.9375 14.4125 10.7625 13.2375C9.5875 12.0625 9 10.65 9 9C9 7.35 9.5875 5.9375 10.7625 4.7625C11.9375 3.5875 13.35 3 15 3C16.65 3 18.0625 3.5875 19.2375 4.7625C20.4125 5.9375 21 7.35 21 9C21 10.65 20.4125 12.0625 19.2375 13.2375C18.0625 14.4125 16.65 15 15 15ZM3 24V22.8C3 21.95 3.21875 21.1688 3.65625 20.4562C4.09375 19.7437 4.675 19.2 5.4 18.825C6.95 18.05 8.525 17.4688 10.125 17.0813C11.725 16.6937 13.35 16.5 15 16.5C16.65 16.5 18.275 16.6937 19.875 17.0813C21.475 17.4688 23.05 18.05 24.6 18.825C25.325 19.2 25.9062 19.7437 26.3438 20.4562C26.7812 21.1688 27 21.95 27 22.8V24C27 24.825 26.7063 25.5313 26.1188 26.1188C25.5313 26.7063 24.825 27 24 27H6C5.175 27 4.46875 26.7063 3.88125 26.1188C3.29375 25.5313 3 24.825 3 24ZM6 24H24V22.8C24 22.525 23.9313 22.275 23.7938 22.05C23.6563 21.825 23.475 21.65 23.25 21.525C21.9 20.85 20.5375 20.3438 19.1625 20.0063C17.7875 19.6688 16.4 19.5 15 19.5C13.6 19.5 12.2125 19.6688 10.8375 20.0063C9.4625 20.3438 8.1 20.85 6.75 21.525C6.525 21.65 6.34375 21.825 6.20625 22.05C6.06875 22.275 6 22.525 6 22.8V24ZM15 12C15.825 12 16.5313 11.7063 17.1188 11.1187C17.7063 10.5312 18 9.825 18 9C18 8.175 17.7063 7.46875 17.1188 6.88125C16.5313 6.29375 15.825 6 15 6C14.175 6 13.4688 6.29375 12.8813 6.88125C12.2938 7.46875 12 8.175 12 9C12 9.825 12.2938 10.5312 12.8813 11.1187C13.4688 11.7063 14.175 12 15 12Z" fill="white"/>
</svg>
