<svg width="23" height="22" viewBox="0 0 23 22" fill="none" xmlns="http://www.w3.org/2000/svg">
<path d="M4.89064 21.5902C4.51284 21.8201 4.04452 21.4824 4.14337 21.0513L5.76177 13.9935C5.80291 13.814 5.74214 13.6265 5.60358 13.5053L0.171453 8.75452C-0.160141 8.46451 0.0181595 7.91848 0.456999 7.88006L7.62773 7.25214C7.81273 7.23594 7.97351 7.11854 8.04527 6.94725L10.8274 0.306767C10.9988 -0.102286 11.5784 -0.102286 11.7497 0.306766L14.5319 6.94725C14.6036 7.11854 14.7644 7.23594 14.9494 7.25214L22.1202 7.88006C22.559 7.91848 22.7373 8.46451 22.4057 8.75452L16.9736 13.5053C16.835 13.6265 16.7742 13.814 16.8154 13.9935L18.4338 21.0513C18.5326 21.4824 18.0643 21.8201 17.6865 21.5902L11.5485 17.855C11.3888 17.7579 11.1883 17.7579 11.0287 17.855L4.89064 21.5902Z" fill="#363534"/>
</svg>
